<svg width="21" height="14" viewBox="0 0 21 14" fill="none" xmlns="http://www.w3.org/2000/svg">
<path d="M20.1957 9.7885C17.4566 7.07004 14.9099 4.39866 12.1928 1.90472C10.7687 0.597524 9.43377 0.644598 7.89679 1.82122C6.52884 2.86873 5.31091 4.10349 3.85964 5.40526C6.24299 5.95145 7.63892 7.43254 9.0692 8.90465C10.4277 10.3024 11.8547 11.6407 13.3099 12.9427C14.3656 13.8872 15.6172 13.867 16.6798 13.0238C17.929 12.0331 19.035 10.87 20.1957 9.7885ZM1.29934 13.3036C2.89019 11.7629 4.40221 10.2986 5.93136 8.8177C5.00136 7.22316 2.34898 7.18339 1.04398 8.45761C-0.158084 9.63131 -0.619636 11.9022 1.29934 13.3036Z" fill="url(#paint0_linear_319_57)"/>
<defs>
<linearGradient id="paint0_linear_319_57" x1="20.1957" y1="13.6538" x2="8.0839" y2="-3.37313" gradientUnits="userSpaceOnUse">
<stop stop-color="#2BFFFF"/>
<stop offset="0.5" stop-color="#28B8E3"/>
<stop offset="0.765241" stop-color="#278FB3"/>
<stop offset="1" stop-color="#265F7B"/>
</linearGradient>
</defs>
</svg>